<svg xmlns="http://www.w3.org/2000/svg" version="1.1" viewBox="0 0 350 175"><!--Created with parliamentarch (https://github.com/Gouvernathor/ParliamentArch-TS)--><g style="fill: #c2000f;" id="group-0"><circle cx="18.475241575014724" cy="157.49999999999997" r="14.000000000000004"></circle><circle cx="53.75644347017859" cy="157.49999999999997" r="14.000000000000004"></circle><circle cx="89.26785900258876" cy="157.49999999999997" r="14.000000000000004"></circle><circle cx="27.29789295919686" cy="120.31602084973026" r="14.000000000000004"></circle><circle cx="65.26395420835979" cy="120.55507136550695" r="14.000000000000004"></circle></g><g style="fill: #f90;" id="group-1"><circle cx="44.81662208710235" cy="86.35160398976375" r="14.000000000000004"></circle><circle cx="105.75982234294493" cy="121.50188977151201" r="14.000000000000004"></circle><circle cx="87.72112452779888" cy="89.04275541696319" r="14.000000000000004"></circle><circle cx="69.99999999999999" cy="57.60643118126106" r="14.000000000000004"></circle><circle cx="101.36533551245108" cy="35.77289708606982" r="14.000000000000004"></circle></g><g style="fill: #ff0;" id="group-2"><circle cx="118.88713767241303" cy="66.10740759167652" r="14.000000000000004"></circle><circle cx="136.430806626225" cy="96.45913597052582" r="14.000000000000004"></circle><circle cx="137.06596982222953" cy="22.136468199665092" r="14.000000000000004"></circle><circle cx="155.65219292014504" cy="54.037558055400055" r="14.000000000000004"></circle><circle cx="175" cy="87.5" r="14.000000000000004"></circle></g><g style="fill: #7DE331;" id="group-3"><circle cx="175" cy="17.499999999999996" r="14.000000000000004"></circle><circle cx="194.34780707985496" cy="54.037558055400055" r="14.000000000000004"></circle><circle cx="212.93403017777044" cy="22.136468199665092" r="14.000000000000004"></circle><circle cx="213.56919337377505" cy="96.45913597052582" r="14.000000000000004"></circle><circle cx="231.11286232758698" cy="66.10740759167652" r="14.000000000000004"></circle></g><g style="fill: #0059c9;" id="group-4"><circle cx="248.63466448754886" cy="35.77289708606982" r="14.000000000000004"></circle><circle cx="280" cy="57.60643118126104" r="14.000000000000004"></circle><circle cx="262.2788754722011" cy="89.04275541696317" r="14.000000000000004"></circle><circle cx="244.2401776570551" cy="121.50188977151204" r="14.000000000000004"></circle><circle cx="305.18337791289764" cy="86.35160398976375" r="14.000000000000004"></circle></g><g style="fill: #7d29ad;" id="group-5"><circle cx="284.7360457916402" cy="120.55507136550695" r="14.000000000000004"></circle><circle cx="322.7021070408031" cy="120.31602084973026" r="14.000000000000004"></circle><circle cx="260.7321409974112" cy="157.5" r="14.000000000000004"></circle><circle cx="296.24355652982143" cy="157.5" r="14.000000000000004"></circle><circle cx="331.52475842498524" cy="157.5" r="14.000000000000004"></circle></g></svg>