<svg xmlns="http://www.w3.org/2000/svg" preserveAspectRatio="xMidYMid meet" viewBox="-1 -11 44 22"><!--Created with ParliamentArch-Westminster (https://github.com/Gouvernathor/ParliamentArch-TS)--><g transform="translate(-1,-0.5)"><g fill="#000000"><title>Speaker</title><rect x="0.05" y="0.05" width="0.9" height="0.9"></rect></g></g><g transform="translate(0,-11)"><g fill="#0087DC"><title>Conservative Party</title><rect x="0.05" y="9.05" width="0.9" height="0.9"></rect><rect x="0.05" y="8.05" width="0.9" height="0.9"></rect><rect x="0.05" y="7.05" width="0.9" height="0.9"></rect><rect x="0.05" y="6.05" width="0.9" height="0.9"></rect><rect x="0.05" y="5.05" width="0.9" height="0.9"></rect><rect x="0.05" y="4.05" width="0.9" height="0.9"></rect><rect x="0.05" y="3.05" width="0.9" height="0.9"></rect><rect x="0.05" y="2.05" width="0.9" height="0.9"></rect><rect x="0.05" y="1.05" width="0.9" height="0.9"></rect><rect x="0.05" y="0.05" width="0.9" height="0.9"></rect><rect x="1.05" y="9.05" width="0.9" height="0.9"></rect><rect x="1.05" y="8.05" width="0.9" height="0.9"></rect><rect x="1.05" y="7.05" width="0.9" height="0.9"></rect><rect x="1.05" y="6.05" width="0.9" height="0.9"></rect><rect x="1.05" y="5.05" width="0.9" height="0.9"></rect><rect x="1.05" y="4.05" width="0.9" height="0.9"></rect><rect x="1.05" y="3.05" width="0.9" height="0.9"></rect><rect x="1.05" y="2.05" width="0.9" height="0.9"></rect><rect x="1.05" y="1.05" width="0.9" height="0.9"></rect><rect x="1.05" y="0.05" width="0.9" height="0.9"></rect><rect x="2.05" y="9.05" width="0.9" height="0.9"></rect><rect x="2.05" y="8.05" width="0.9" height="0.9"></rect><rect x="2.05" y="7.05" width="0.9" height="0.9"></rect><rect x="2.05" y="6.05" width="0.9" height="0.9"></rect><rect x="2.05" y="5.05" width="0.9" height="0.9"></rect><rect x="2.05" y="4.05" width="0.9" height="0.9"></rect><rect x="2.05" y="3.05" width="0.9" height="0.9"></rect><rect x="2.05" y="2.05" width="0.9" height="0.9"></rect><rect x="2.05" y="1.05" width="0.9" height="0.9"></rect><rect x="2.05" y="0.05" width="0.9" height="0.9"></rect><rect x="3.05" y="9.05" width="0.9" height="0.9"></rect><rect x="3.05" y="8.05" width="0.9" height="0.9"></rect><rect x="3.05" y="7.05" width="0.9" height="0.9"></rect><rect x="3.05" y="6.05" width="0.9" height="0.9"></rect><rect x="3.05" y="5.05" width="0.9" height="0.9"></rect><rect x="3.05" y="4.05" width="0.9" height="0.9"></rect><rect x="3.05" y="3.05" width="0.9" height="0.9"></rect><rect x="3.05" y="2.05" width="0.9" height="0.9"></rect><rect x="3.05" y="1.05" width="0.9" height="0.9"></rect><rect x="3.05" y="0.05" width="0.9" height="0.9"></rect><rect x="4.05" y="9.05" width="0.9" height="0.9"></rect><rect x="4.05" y="8.05" width="0.9" height="0.9"></rect><rect x="4.05" y="7.05" width="0.9" height="0.9"></rect><rect x="4.05" y="6.05" width="0.9" height="0.9"></rect><rect x="4.05" y="5.05" width="0.9" height="0.9"></rect><rect x="4.05" y="4.05" width="0.9" height="0.9"></rect><rect x="4.05" y="3.05" width="0.9" height="0.9"></rect><rect x="4.05" y="2.05" width="0.9" height="0.9"></rect><rect x="4.05" y="1.05" width="0.9" height="0.9"></rect><rect x="4.05" y="0.05" width="0.9" height="0.9"></rect><rect x="5.05" y="9.05" width="0.9" height="0.9"></rect><rect x="5.05" y="8.05" width="0.9" height="0.9"></rect><rect x="5.05" y="7.05" width="0.9" height="0.9"></rect><rect x="5.05" y="6.05" width="0.9" height="0.9"></rect><rect x="5.05" y="5.05" width="0.9" height="0.9"></rect><rect x="5.05" y="4.05" width="0.9" height="0.9"></rect><rect x="5.05" y="3.05" width="0.9" height="0.9"></rect><rect x="5.05" y="2.05" width="0.9" height="0.9"></rect><rect x="5.05" y="1.05" width="0.9" height="0.9"></rect><rect x="5.05" y="0.05" width="0.9" height="0.9"></rect><rect x="6.05" y="9.05" width="0.9" height="0.9"></rect><rect x="6.05" y="8.05" width="0.9" height="0.9"></rect><rect x="6.05" y="7.05" width="0.9" height="0.9"></rect><rect x="6.05" y="6.05" width="0.9" height="0.9"></rect><rect x="6.05" y="5.05" width="0.9" height="0.9"></rect><rect x="6.05" y="4.05" width="0.9" height="0.9"></rect><rect x="6.05" y="3.05" width="0.9" height="0.9"></rect><rect x="6.05" y="2.05" width="0.9" height="0.9"></rect><rect x="6.05" y="1.05" width="0.9" height="0.9"></rect><rect x="6.05" y="0.05" width="0.9" height="0.9"></rect><rect x="7.05" y="9.05" width="0.9" height="0.9"></rect><rect x="7.05" y="8.05" width="0.9" height="0.9"></rect><rect x="7.05" y="7.05" width="0.9" height="0.9"></rect><rect x="7.05" y="6.05" width="0.9" height="0.9"></rect><rect x="7.05" y="5.05" width="0.9" height="0.9"></rect><rect x="7.05" y="4.05" width="0.9" height="0.9"></rect><rect x="7.05" y="3.05" width="0.9" height="0.9"></rect><rect x="7.05" y="2.05" width="0.9" height="0.9"></rect><rect x="7.05" y="1.05" width="0.9" height="0.9"></rect><rect x="7.05" y="0.05" width="0.9" height="0.9"></rect><rect x="8.05" y="9.05" width="0.9" height="0.9"></rect><rect x="8.05" y="8.05" width="0.9" height="0.9"></rect><rect x="8.05" y="7.05" width="0.9" height="0.9"></rect><rect x="8.05" y="6.05" width="0.9" height="0.9"></rect><rect x="8.05" y="5.05" width="0.9" height="0.9"></rect><rect x="8.05" y="4.05" width="0.9" height="0.9"></rect><rect x="8.05" y="3.05" width="0.9" height="0.9"></rect><rect x="8.05" y="2.05" width="0.9" height="0.9"></rect><rect x="8.05" y="1.05" width="0.9" height="0.9"></rect><rect x="8.05" y="0.05" width="0.9" height="0.9"></rect><rect x="9.05" y="9.05" width="0.9" height="0.9"></rect><rect x="9.05" y="8.05" width="0.9" height="0.9"></rect><rect x="9.05" y="7.05" width="0.9" height="0.9"></rect><rect x="9.05" y="6.05" width="0.9" height="0.9"></rect><rect x="9.05" y="5.05" width="0.9" height="0.9"></rect><rect x="9.05" y="4.05" width="0.9" height="0.9"></rect><rect x="9.05" y="3.05" width="0.9" height="0.9"></rect><rect x="9.05" y="2.05" width="0.9" height="0.9"></rect><rect x="9.05" y="1.05" width="0.9" height="0.9"></rect><rect x="9.05" y="0.05" width="0.9" height="0.9"></rect><rect x="10.05" y="9.05" width="0.9" height="0.9"></rect><rect x="10.05" y="8.05" width="0.9" height="0.9"></rect><rect x="10.05" y="7.05" width="0.9" height="0.9"></rect><rect x="10.05" y="6.05" width="0.9" height="0.9"></rect><rect x="10.05" y="5.05" width="0.9" height="0.9"></rect><rect x="10.05" y="4.05" width="0.9" height="0.9"></rect><rect x="10.05" y="3.05" width="0.9" height="0.9"></rect><rect x="10.05" y="2.05" width="0.9" height="0.9"></rect><rect x="10.05" y="1.05" width="0.9" height="0.9"></rect><rect x="10.05" y="0.05" width="0.9" height="0.9"></rect><rect x="11.05" y="9.05" width="0.9" height="0.9"></rect><rect x="11.05" y="8.05" width="0.9" height="0.9"></rect><rect x="11.05" y="7.05" width="0.9" height="0.9"></rect><rect x="11.05" y="6.05" width="0.9" height="0.9"></rect><rect x="11.05" y="5.05" width="0.9" height="0.9"></rect><rect x="11.05" y="4.05" width="0.9" height="0.9"></rect><rect x="11.05" y="3.05" width="0.9" height="0.9"></rect></g><g fill="#FF6400"><title>Liberal Democrats</title><rect x="11.05" y="2.05" width="0.9" height="0.9"></rect><rect x="11.05" y="1.05" width="0.9" height="0.9"></rect><rect x="11.05" y="0.05" width="0.9" height="0.9"></rect><rect x="12.05" y="9.05" width="0.9" height="0.9"></rect><rect x="12.05" y="8.05" width="0.9" height="0.9"></rect><rect x="12.05" y="7.05" width="0.9" height="0.9"></rect><rect x="12.05" y="6.05" width="0.9" height="0.9"></rect><rect x="12.05" y="5.05" width="0.9" height="0.9"></rect><rect x="12.05" y="4.05" width="0.9" height="0.9"></rect><rect x="12.05" y="3.05" width="0.9" height="0.9"></rect><rect x="12.05" y="2.05" width="0.9" height="0.9"></rect><rect x="12.05" y="1.05" width="0.9" height="0.9"></rect><rect x="12.05" y="0.05" width="0.9" height="0.9"></rect><rect x="13.05" y="9.05" width="0.9" height="0.9"></rect><rect x="13.05" y="8.05" width="0.9" height="0.9"></rect><rect x="13.05" y="7.05" width="0.9" height="0.9"></rect><rect x="13.05" y="6.05" width="0.9" height="0.9"></rect><rect x="13.05" y="5.05" width="0.9" height="0.9"></rect><rect x="13.05" y="4.05" width="0.9" height="0.9"></rect><rect x="13.05" y="3.05" width="0.9" height="0.9"></rect><rect x="13.05" y="2.05" width="0.9" height="0.9"></rect><rect x="13.05" y="1.05" width="0.9" height="0.9"></rect><rect x="13.05" y="0.05" width="0.9" height="0.9"></rect><rect x="14.05" y="9.05" width="0.9" height="0.9"></rect><rect x="14.05" y="8.05" width="0.9" height="0.9"></rect><rect x="14.05" y="7.05" width="0.9" height="0.9"></rect><rect x="14.05" y="6.05" width="0.9" height="0.9"></rect><rect x="14.05" y="5.05" width="0.9" height="0.9"></rect><rect x="14.05" y="4.05" width="0.9" height="0.9"></rect><rect x="14.05" y="3.05" width="0.9" height="0.9"></rect><rect x="14.05" y="2.05" width="0.9" height="0.9"></rect><rect x="14.05" y="1.05" width="0.9" height="0.9"></rect><rect x="14.05" y="0.05" width="0.9" height="0.9"></rect><rect x="15.05" y="9.05" width="0.9" height="0.9"></rect><rect x="15.05" y="8.05" width="0.9" height="0.9"></rect><rect x="15.05" y="7.05" width="0.9" height="0.9"></rect><rect x="15.05" y="6.05" width="0.9" height="0.9"></rect><rect x="15.05" y="5.05" width="0.9" height="0.9"></rect><rect x="15.05" y="4.05" width="0.9" height="0.9"></rect><rect x="15.05" y="3.05" width="0.9" height="0.9"></rect><rect x="15.05" y="2.05" width="0.9" height="0.9"></rect><rect x="15.05" y="1.05" width="0.9" height="0.9"></rect><rect x="15.05" y="0.05" width="0.9" height="0.9"></rect><rect x="16.05" y="9.05" width="0.9" height="0.9"></rect><rect x="16.05" y="8.05" width="0.9" height="0.9"></rect><rect x="16.05" y="7.05" width="0.9" height="0.9"></rect><rect x="16.05" y="6.05" width="0.9" height="0.9"></rect><rect x="16.05" y="5.05" width="0.9" height="0.9"></rect><rect x="16.05" y="4.05" width="0.9" height="0.9"></rect><rect x="16.05" y="3.05" width="0.9" height="0.9"></rect><rect x="16.05" y="2.05" width="0.9" height="0.9"></rect><rect x="16.05" y="1.05" width="0.9" height="0.9"></rect><rect x="16.05" y="0.05" width="0.9" height="0.9"></rect><rect x="17.05" y="9.05" width="0.9" height="0.9"></rect><rect x="17.05" y="8.05" width="0.9" height="0.9"></rect><rect x="17.05" y="7.05" width="0.9" height="0.9"></rect><rect x="17.05" y="6.05" width="0.9" height="0.9"></rect><rect x="17.05" y="5.05" width="0.9" height="0.9"></rect><rect x="17.05" y="4.05" width="0.9" height="0.9"></rect><rect x="17.05" y="3.05" width="0.9" height="0.9"></rect><rect x="17.05" y="2.05" width="0.9" height="0.9"></rect><rect x="17.05" y="1.05" width="0.9" height="0.9"></rect><rect x="17.05" y="0.05" width="0.9" height="0.9"></rect><rect x="18.05" y="9.05" width="0.9" height="0.9"></rect><rect x="18.05" y="8.05" width="0.9" height="0.9"></rect><rect x="18.05" y="7.05" width="0.9" height="0.9"></rect><rect x="18.05" y="6.05" width="0.9" height="0.9"></rect><rect x="18.05" y="5.05" width="0.9" height="0.9"></rect><rect x="18.05" y="4.05" width="0.9" height="0.9"></rect><rect x="18.05" y="3.05" width="0.9" height="0.9"></rect><rect x="18.05" y="2.05" width="0.9" height="0.9"></rect></g><g fill="#1EB8D0"><title>Reform UK</title><rect x="18.05" y="1.05" width="0.9" height="0.9"></rect><rect x="18.05" y="0.05" width="0.9" height="0.9"></rect><rect x="19.05" y="9.05" width="0.9" height="0.9"></rect><rect x="19.05" y="8.05" width="0.9" height="0.9"></rect><rect x="19.05" y="7.05" width="0.9" height="0.9"></rect><rect x="19.05" y="6.05" width="0.9" height="0.9"></rect><rect x="19.05" y="5.05" width="0.9" height="0.9"></rect><rect x="19.05" y="4.05" width="0.9" height="0.9"></rect></g><g fill="#FDF38E"><title>Scottish National Party</title><rect x="19.05" y="3.05" width="0.9" height="0.9"></rect><rect x="19.05" y="2.05" width="0.9" height="0.9"></rect><rect x="19.05" y="1.05" width="0.9" height="0.9"></rect><rect x="19.05" y="0.05" width="0.9" height="0.9"></rect><rect x="20.05" y="9.05" width="0.9" height="0.9"></rect><rect x="20.05" y="8.05" width="0.9" height="0.9"></rect><rect x="20.05" y="7.05" width="0.9" height="0.9"></rect><rect x="20.05" y="6.05" width="0.9" height="0.9"></rect></g><g fill="#D46A4C"><title>Democratic Unionist Party</title><rect x="20.05" y="5.05" width="0.9" height="0.9"></rect><rect x="20.05" y="4.05" width="0.9" height="0.9"></rect><rect x="20.05" y="3.05" width="0.9" height="0.9"></rect><rect x="20.05" y="2.05" width="0.9" height="0.9"></rect><rect x="20.05" y="1.05" width="0.9" height="0.9"></rect></g><g fill="#02A95B"><title>Green Party</title><rect x="20.05" y="0.05" width="0.9" height="0.9"></rect><rect x="21.05" y="9.05" width="0.9" height="0.9"></rect><rect x="21.05" y="8.05" width="0.9" height="0.9"></rect><rect x="21.05" y="7.05" width="0.9" height="0.9"></rect><rect x="21.05" y="6.05" width="0.9" height="0.9"></rect></g><g fill="#808080"><title>Independent Alliance</title><rect x="21.05" y="5.05" width="0.9" height="0.9"></rect><rect x="21.05" y="4.05" width="0.9" height="0.9"></rect><rect x="21.05" y="3.05" width="0.9" height="0.9"></rect><rect x="21.05" y="2.05" width="0.9" height="0.9"></rect></g><g fill="#008672"><title>Plaid Cymru</title><rect x="21.05" y="1.05" width="0.9" height="0.9"></rect><rect x="21.05" y="0.05" width="0.9" height="0.9"></rect><rect x="22.05" y="9.05" width="0.9" height="0.9"></rect><rect x="22.05" y="8.05" width="0.9" height="0.9"></rect></g><g fill="#FF0000"><title>Social Democratic and Labour Party</title><rect x="22.05" y="7.05" width="0.9" height="0.9"></rect><rect x="22.05" y="6.05" width="0.9" height="0.9"></rect></g><g fill="#FF3131"><title>Your Party</title><rect x="22.05" y="5.05" width="0.9" height="0.9"></rect><rect x="22.05" y="4.05" width="0.9" height="0.9"></rect></g><g fill="#F6CB2F"><title>Alliance Party</title><rect x="22.05" y="3.05" width="0.9" height="0.9"></rect></g><g fill="#051D3F"><title>Restore Britain</title><rect x="22.05" y="2.05" width="0.9" height="0.9"></rect></g><g fill="#0C3A6A"><title>Traditional Unionist Voice</title><rect x="22.05" y="1.05" width="0.9" height="0.9"></rect></g><g fill="#48A5EE"><title>Ulster Unionist Party</title><rect x="22.05" y="0.05" width="0.9" height="0.9"></rect></g><g fill="#DCDCDC"><title>Independents</title><rect x="23.05" y="9.05" width="0.9" height="0.9"></rect><rect x="23.05" y="8.05" width="0.9" height="0.9"></rect><rect x="23.05" y="7.05" width="0.9" height="0.9"></rect><rect x="23.05" y="6.05" width="0.9" height="0.9"></rect><rect x="23.05" y="5.05" width="0.9" height="0.9"></rect><rect x="23.05" y="4.05" width="0.9" height="0.9"></rect><rect x="23.05" y="3.05" width="0.9" height="0.9"></rect><rect x="23.05" y="2.05" width="0.9" height="0.9"></rect><rect x="23.05" y="1.05" width="0.9" height="0.9"></rect></g></g><g transform="translate(0,1)"><g fill="#E4003B"><title>Labour Party</title><rect x="0.05" y="0.05" width="0.9" height="0.9"></rect><rect x="0.05" y="1.05" width="0.9" height="0.9"></rect><rect x="0.05" y="2.05" width="0.9" height="0.9"></rect><rect x="0.05" y="3.05" width="0.9" height="0.9"></rect><rect x="0.05" y="4.05" width="0.9" height="0.9"></rect><rect x="0.05" y="5.05" width="0.9" height="0.9"></rect><rect x="0.05" y="6.05" width="0.9" height="0.9"></rect><rect x="0.05" y="7.05" width="0.9" height="0.9"></rect><rect x="0.05" y="8.05" width="0.9" height="0.9"></rect><rect x="0.05" y="9.05" width="0.9" height="0.9"></rect><rect x="1.05" y="0.05" width="0.9" height="0.9"></rect><rect x="1.05" y="1.05" width="0.9" height="0.9"></rect><rect x="1.05" y="2.05" width="0.9" height="0.9"></rect><rect x="1.05" y="3.05" width="0.9" height="0.9"></rect><rect x="1.05" y="4.05" width="0.9" height="0.9"></rect><rect x="1.05" y="5.05" width="0.9" height="0.9"></rect><rect x="1.05" y="6.05" width="0.9" height="0.9"></rect><rect x="1.05" y="7.05" width="0.9" height="0.9"></rect><rect x="1.05" y="8.05" width="0.9" height="0.9"></rect><rect x="1.05" y="9.05" width="0.9" height="0.9"></rect><rect x="2.05" y="0.05" width="0.9" height="0.9"></rect><rect x="2.05" y="1.05" width="0.9" height="0.9"></rect><rect x="2.05" y="2.05" width="0.9" height="0.9"></rect><rect x="2.05" y="3.05" width="0.9" height="0.9"></rect><rect x="2.05" y="4.05" width="0.9" height="0.9"></rect><rect x="2.05" y="5.05" width="0.9" height="0.9"></rect><rect x="2.05" y="6.05" width="0.9" height="0.9"></rect><rect x="2.05" y="7.05" width="0.9" height="0.9"></rect><rect x="2.05" y="8.05" width="0.9" height="0.9"></rect><rect x="2.05" y="9.05" width="0.9" height="0.9"></rect><rect x="3.05" y="0.05" width="0.9" height="0.9"></rect><rect x="3.05" y="1.05" width="0.9" height="0.9"></rect><rect x="3.05" y="2.05" width="0.9" height="0.9"></rect><rect x="3.05" y="3.05" width="0.9" height="0.9"></rect><rect x="3.05" y="4.05" width="0.9" height="0.9"></rect><rect x="3.05" y="5.05" width="0.9" height="0.9"></rect><rect x="3.05" y="6.05" width="0.9" height="0.9"></rect><rect x="3.05" y="7.05" width="0.9" height="0.9"></rect><rect x="3.05" y="8.05" width="0.9" height="0.9"></rect><rect x="3.05" y="9.05" width="0.9" height="0.9"></rect><rect x="4.05" y="0.05" width="0.9" height="0.9"></rect><rect x="4.05" y="1.05" width="0.9" height="0.9"></rect><rect x="4.05" y="2.05" width="0.9" height="0.9"></rect><rect x="4.05" y="3.05" width="0.9" height="0.9"></rect><rect x="4.05" y="4.05" width="0.9" height="0.9"></rect><rect x="4.05" y="5.05" width="0.9" height="0.9"></rect><rect x="4.05" y="6.05" width="0.9" height="0.9"></rect><rect x="4.05" y="7.05" width="0.9" height="0.9"></rect><rect x="4.05" y="8.05" width="0.9" height="0.9"></rect><rect x="4.05" y="9.05" width="0.9" height="0.9"></rect><rect x="5.05" y="0.05" width="0.9" height="0.9"></rect><rect x="5.05" y="1.05" width="0.9" height="0.9"></rect><rect x="5.05" y="2.05" width="0.9" height="0.9"></rect><rect x="5.05" y="3.05" width="0.9" height="0.9"></rect><rect x="5.05" y="4.05" width="0.9" height="0.9"></rect><rect x="5.05" y="5.05" width="0.9" height="0.9"></rect><rect x="5.05" y="6.05" width="0.9" height="0.9"></rect><rect x="5.05" y="7.05" width="0.9" height="0.9"></rect><rect x="5.05" y="8.05" width="0.9" height="0.9"></rect><rect x="5.05" y="9.05" width="0.9" height="0.9"></rect><rect x="6.05" y="0.05" width="0.9" height="0.9"></rect><rect x="6.05" y="1.05" width="0.9" height="0.9"></rect><rect x="6.05" y="2.05" width="0.9" height="0.9"></rect><rect x="6.05" y="3.05" width="0.9" height="0.9"></rect><rect x="6.05" y="4.05" width="0.9" height="0.9"></rect><rect x="6.05" y="5.05" width="0.9" height="0.9"></rect><rect x="6.05" y="6.05" width="0.9" height="0.9"></rect><rect x="6.05" y="7.05" width="0.9" height="0.9"></rect><rect x="6.05" y="8.05" width="0.9" height="0.9"></rect><rect x="6.05" y="9.05" width="0.9" height="0.9"></rect><rect x="7.05" y="0.05" width="0.9" height="0.9"></rect><rect x="7.05" y="1.05" width="0.9" height="0.9"></rect><rect x="7.05" y="2.05" width="0.9" height="0.9"></rect><rect x="7.05" y="3.05" width="0.9" height="0.9"></rect><rect x="7.05" y="4.05" width="0.9" height="0.9"></rect><rect x="7.05" y="5.05" width="0.9" height="0.9"></rect><rect x="7.05" y="6.05" width="0.9" height="0.9"></rect><rect x="7.05" y="7.05" width="0.9" height="0.9"></rect><rect x="7.05" y="8.05" width="0.9" height="0.9"></rect><rect x="7.05" y="9.05" width="0.9" height="0.9"></rect><rect x="8.05" y="0.05" width="0.9" height="0.9"></rect><rect x="8.05" y="1.05" width="0.9" height="0.9"></rect><rect x="8.05" y="2.05" width="0.9" height="0.9"></rect><rect x="8.05" y="3.05" width="0.9" height="0.9"></rect><rect x="8.05" y="4.05" width="0.9" height="0.9"></rect><rect x="8.05" y="5.05" width="0.9" height="0.9"></rect><rect x="8.05" y="6.05" width="0.9" height="0.9"></rect><rect x="8.05" y="7.05" width="0.9" height="0.9"></rect><rect x="8.05" y="8.05" width="0.9" height="0.9"></rect><rect x="8.05" y="9.05" width="0.9" height="0.9"></rect><rect x="9.05" y="0.05" width="0.9" height="0.9"></rect><rect x="9.05" y="1.05" width="0.9" height="0.9"></rect><rect x="9.05" y="2.05" width="0.9" height="0.9"></rect><rect x="9.05" y="3.05" width="0.9" height="0.9"></rect><rect x="9.05" y="4.05" width="0.9" height="0.9"></rect><rect x="9.05" y="5.05" width="0.9" height="0.9"></rect><rect x="9.05" y="6.05" width="0.9" height="0.9"></rect><rect x="9.05" y="7.05" width="0.9" height="0.9"></rect><rect x="9.05" y="8.05" width="0.9" height="0.9"></rect><rect x="9.05" y="9.05" width="0.9" height="0.9"></rect><rect x="10.05" y="0.05" width="0.9" height="0.9"></rect><rect x="10.05" y="1.05" width="0.9" height="0.9"></rect><rect x="10.05" y="2.05" width="0.9" height="0.9"></rect><rect x="10.05" y="3.05" width="0.9" height="0.9"></rect><rect x="10.05" y="4.05" width="0.9" height="0.9"></rect><rect x="10.05" y="5.05" width="0.9" height="0.9"></rect><rect x="10.05" y="6.05" width="0.9" height="0.9"></rect><rect x="10.05" y="7.05" width="0.9" height="0.9"></rect><rect x="10.05" y="8.05" width="0.9" height="0.9"></rect><rect x="10.05" y="9.05" width="0.9" height="0.9"></rect><rect x="11.05" y="0.05" width="0.9" height="0.9"></rect><rect x="11.05" y="1.05" width="0.9" height="0.9"></rect><rect x="11.05" y="2.05" width="0.9" height="0.9"></rect><rect x="11.05" y="3.05" width="0.9" height="0.9"></rect><rect x="11.05" y="4.05" width="0.9" height="0.9"></rect><rect x="11.05" y="5.05" width="0.9" height="0.9"></rect><rect x="11.05" y="6.05" width="0.9" height="0.9"></rect><rect x="11.05" y="7.05" width="0.9" height="0.9"></rect><rect x="11.05" y="8.05" width="0.9" height="0.9"></rect><rect x="11.05" y="9.05" width="0.9" height="0.9"></rect><rect x="12.05" y="0.05" width="0.9" height="0.9"></rect><rect x="12.05" y="1.05" width="0.9" height="0.9"></rect><rect x="12.05" y="2.05" width="0.9" height="0.9"></rect><rect x="12.05" y="3.05" width="0.9" height="0.9"></rect><rect x="12.05" y="4.05" width="0.9" height="0.9"></rect><rect x="12.05" y="5.05" width="0.9" height="0.9"></rect><rect x="12.05" y="6.05" width="0.9" height="0.9"></rect><rect x="12.05" y="7.05" width="0.9" height="0.9"></rect><rect x="12.05" y="8.05" width="0.9" height="0.9"></rect><rect x="12.05" y="9.05" width="0.9" height="0.9"></rect><rect x="13.05" y="0.05" width="0.9" height="0.9"></rect><rect x="13.05" y="1.05" width="0.9" height="0.9"></rect><rect x="13.05" y="2.05" width="0.9" height="0.9"></rect><rect x="13.05" y="3.05" width="0.9" height="0.9"></rect><rect x="13.05" y="4.05" width="0.9" height="0.9"></rect><rect x="13.05" y="5.05" width="0.9" height="0.9"></rect><rect x="13.05" y="6.05" width="0.9" height="0.9"></rect><rect x="13.05" y="7.05" width="0.9" height="0.9"></rect><rect x="13.05" y="8.05" width="0.9" height="0.9"></rect><rect x="13.05" y="9.05" width="0.9" height="0.9"></rect><rect x="14.05" y="0.05" width="0.9" height="0.9"></rect><rect x="14.05" y="1.05" width="0.9" height="0.9"></rect><rect x="14.05" y="2.05" width="0.9" height="0.9"></rect><rect x="14.05" y="3.05" width="0.9" height="0.9"></rect><rect x="14.05" y="4.05" width="0.9" height="0.9"></rect><rect x="14.05" y="5.05" width="0.9" height="0.9"></rect><rect x="14.05" y="6.05" width="0.9" height="0.9"></rect><rect x="14.05" y="7.05" width="0.9" height="0.9"></rect><rect x="14.05" y="8.05" width="0.9" height="0.9"></rect><rect x="14.05" y="9.05" width="0.9" height="0.9"></rect><rect x="15.05" y="0.05" width="0.9" height="0.9"></rect><rect x="15.05" y="1.05" width="0.9" height="0.9"></rect><rect x="15.05" y="2.05" width="0.9" height="0.9"></rect><rect x="15.05" y="3.05" width="0.9" height="0.9"></rect><rect x="15.05" y="4.05" width="0.9" height="0.9"></rect><rect x="15.05" y="5.05" width="0.9" height="0.9"></rect><rect x="15.05" y="6.05" width="0.9" height="0.9"></rect><rect x="15.05" y="7.05" width="0.9" height="0.9"></rect><rect x="15.05" y="8.05" width="0.9" height="0.9"></rect><rect x="15.05" y="9.05" width="0.9" height="0.9"></rect><rect x="16.05" y="0.05" width="0.9" height="0.9"></rect><rect x="16.05" y="1.05" width="0.9" height="0.9"></rect><rect x="16.05" y="2.05" width="0.9" height="0.9"></rect><rect x="16.05" y="3.05" width="0.9" height="0.9"></rect><rect x="16.05" y="4.05" width="0.9" height="0.9"></rect><rect x="16.05" y="5.05" width="0.9" height="0.9"></rect><rect x="16.05" y="6.05" width="0.9" height="0.9"></rect><rect x="16.05" y="7.05" width="0.9" height="0.9"></rect><rect x="16.05" y="8.05" width="0.9" height="0.9"></rect><rect x="16.05" y="9.05" width="0.9" height="0.9"></rect><rect x="17.05" y="0.05" width="0.9" height="0.9"></rect><rect x="17.05" y="1.05" width="0.9" height="0.9"></rect><rect x="17.05" y="2.05" width="0.9" height="0.9"></rect><rect x="17.05" y="3.05" width="0.9" height="0.9"></rect><rect x="17.05" y="4.05" width="0.9" height="0.9"></rect><rect x="17.05" y="5.05" width="0.9" height="0.9"></rect><rect x="17.05" y="6.05" width="0.9" height="0.9"></rect><rect x="17.05" y="7.05" width="0.9" height="0.9"></rect><rect x="17.05" y="8.05" width="0.9" height="0.9"></rect><rect x="17.05" y="9.05" width="0.9" height="0.9"></rect><rect x="18.05" y="0.05" width="0.9" height="0.9"></rect><rect x="18.05" y="1.05" width="0.9" height="0.9"></rect><rect x="18.05" y="2.05" width="0.9" height="0.9"></rect><rect x="18.05" y="3.05" width="0.9" height="0.9"></rect><rect x="18.05" y="4.05" width="0.9" height="0.9"></rect><rect x="18.05" y="5.05" width="0.9" height="0.9"></rect><rect x="18.05" y="6.05" width="0.9" height="0.9"></rect><rect x="18.05" y="7.05" width="0.9" height="0.9"></rect><rect x="18.05" y="8.05" width="0.9" height="0.9"></rect><rect x="18.05" y="9.05" width="0.9" height="0.9"></rect><rect x="19.05" y="0.05" width="0.9" height="0.9"></rect><rect x="19.05" y="1.05" width="0.9" height="0.9"></rect><rect x="19.05" y="2.05" width="0.9" height="0.9"></rect><rect x="19.05" y="3.05" width="0.9" height="0.9"></rect><rect x="19.05" y="4.05" width="0.9" height="0.9"></rect><rect x="19.05" y="5.05" width="0.9" height="0.9"></rect><rect x="19.05" y="6.05" width="0.9" height="0.9"></rect><rect x="19.05" y="7.05" width="0.9" height="0.9"></rect><rect x="19.05" y="8.05" width="0.9" height="0.9"></rect><rect x="19.05" y="9.05" width="0.9" height="0.9"></rect><rect x="20.05" y="0.05" width="0.9" height="0.9"></rect><rect x="20.05" y="1.05" width="0.9" height="0.9"></rect><rect x="20.05" y="2.05" width="0.9" height="0.9"></rect><rect x="20.05" y="3.05" width="0.9" height="0.9"></rect><rect x="20.05" y="4.05" width="0.9" height="0.9"></rect><rect x="20.05" y="5.05" width="0.9" height="0.9"></rect><rect x="20.05" y="6.05" width="0.9" height="0.9"></rect><rect x="20.05" y="7.05" width="0.9" height="0.9"></rect><rect x="20.05" y="8.05" width="0.9" height="0.9"></rect><rect x="20.05" y="9.05" width="0.9" height="0.9"></rect><rect x="21.05" y="0.05" width="0.9" height="0.9"></rect><rect x="21.05" y="1.05" width="0.9" height="0.9"></rect><rect x="21.05" y="2.05" width="0.9" height="0.9"></rect><rect x="21.05" y="3.05" width="0.9" height="0.9"></rect><rect x="21.05" y="4.05" width="0.9" height="0.9"></rect><rect x="21.05" y="5.05" width="0.9" height="0.9"></rect><rect x="21.05" y="6.05" width="0.9" height="0.9"></rect><rect x="21.05" y="7.05" width="0.9" height="0.9"></rect><rect x="21.05" y="8.05" width="0.9" height="0.9"></rect><rect x="21.05" y="9.05" width="0.9" height="0.9"></rect><rect x="22.05" y="0.05" width="0.9" height="0.9"></rect><rect x="22.05" y="1.05" width="0.9" height="0.9"></rect><rect x="22.05" y="2.05" width="0.9" height="0.9"></rect><rect x="22.05" y="3.05" width="0.9" height="0.9"></rect><rect x="22.05" y="4.05" width="0.9" height="0.9"></rect><rect x="22.05" y="5.05" width="0.9" height="0.9"></rect><rect x="22.05" y="6.05" width="0.9" height="0.9"></rect><rect x="22.05" y="7.05" width="0.9" height="0.9"></rect><rect x="22.05" y="8.05" width="0.9" height="0.9"></rect><rect x="22.05" y="9.05" width="0.9" height="0.9"></rect><rect x="23.05" y="0.05" width="0.9" height="0.9"></rect><rect x="23.05" y="1.05" width="0.9" height="0.9"></rect><rect x="23.05" y="2.05" width="0.9" height="0.9"></rect><rect x="23.05" y="3.05" width="0.9" height="0.9"></rect><rect x="23.05" y="4.05" width="0.9" height="0.9"></rect><rect x="23.05" y="5.05" width="0.9" height="0.9"></rect><rect x="23.05" y="6.05" width="0.9" height="0.9"></rect><rect x="23.05" y="7.05" width="0.9" height="0.9"></rect><rect x="23.05" y="8.05" width="0.9" height="0.9"></rect><rect x="23.05" y="9.05" width="0.9" height="0.9"></rect><rect x="24.05" y="0.05" width="0.9" height="0.9"></rect><rect x="24.05" y="1.05" width="0.9" height="0.9"></rect><rect x="24.05" y="2.05" width="0.9" height="0.9"></rect><rect x="24.05" y="3.05" width="0.9" height="0.9"></rect><rect x="24.05" y="4.05" width="0.9" height="0.9"></rect><rect x="24.05" y="5.05" width="0.9" height="0.9"></rect><rect x="24.05" y="6.05" width="0.9" height="0.9"></rect><rect x="24.05" y="7.05" width="0.9" height="0.9"></rect><rect x="24.05" y="8.05" width="0.9" height="0.9"></rect><rect x="24.05" y="9.05" width="0.9" height="0.9"></rect><rect x="25.05" y="0.05" width="0.9" height="0.9"></rect><rect x="25.05" y="1.05" width="0.9" height="0.9"></rect><rect x="25.05" y="2.05" width="0.9" height="0.9"></rect><rect x="25.05" y="3.05" width="0.9" height="0.9"></rect><rect x="25.05" y="4.05" width="0.9" height="0.9"></rect><rect x="25.05" y="5.05" width="0.9" height="0.9"></rect><rect x="25.05" y="6.05" width="0.9" height="0.9"></rect><rect x="25.05" y="7.05" width="0.9" height="0.9"></rect><rect x="25.05" y="8.05" width="0.9" height="0.9"></rect><rect x="25.05" y="9.05" width="0.9" height="0.9"></rect><rect x="26.05" y="0.05" width="0.9" height="0.9"></rect><rect x="26.05" y="1.05" width="0.9" height="0.9"></rect><rect x="26.05" y="2.05" width="0.9" height="0.9"></rect><rect x="26.05" y="3.05" width="0.9" height="0.9"></rect><rect x="26.05" y="4.05" width="0.9" height="0.9"></rect><rect x="26.05" y="5.05" width="0.9" height="0.9"></rect><rect x="26.05" y="6.05" width="0.9" height="0.9"></rect><rect x="26.05" y="7.05" width="0.9" height="0.9"></rect><rect x="26.05" y="8.05" width="0.9" height="0.9"></rect><rect x="26.05" y="9.05" width="0.9" height="0.9"></rect><rect x="27.05" y="0.05" width="0.9" height="0.9"></rect><rect x="27.05" y="1.05" width="0.9" height="0.9"></rect><rect x="27.05" y="2.05" width="0.9" height="0.9"></rect><rect x="27.05" y="3.05" width="0.9" height="0.9"></rect><rect x="27.05" y="4.05" width="0.9" height="0.9"></rect><rect x="27.05" y="5.05" width="0.9" height="0.9"></rect><rect x="27.05" y="6.05" width="0.9" height="0.9"></rect><rect x="27.05" y="7.05" width="0.9" height="0.9"></rect><rect x="27.05" y="8.05" width="0.9" height="0.9"></rect><rect x="27.05" y="9.05" width="0.9" height="0.9"></rect><rect x="28.05" y="0.05" width="0.9" height="0.9"></rect><rect x="28.05" y="1.05" width="0.9" height="0.9"></rect><rect x="28.05" y="2.05" width="0.9" height="0.9"></rect><rect x="28.05" y="3.05" width="0.9" height="0.9"></rect><rect x="28.05" y="4.05" width="0.9" height="0.9"></rect><rect x="28.05" y="5.05" width="0.9" height="0.9"></rect><rect x="28.05" y="6.05" width="0.9" height="0.9"></rect><rect x="28.05" y="7.05" width="0.9" height="0.9"></rect><rect x="28.05" y="8.05" width="0.9" height="0.9"></rect><rect x="28.05" y="9.05" width="0.9" height="0.9"></rect><rect x="29.05" y="0.05" width="0.9" height="0.9"></rect><rect x="29.05" y="1.05" width="0.9" height="0.9"></rect><rect x="29.05" y="2.05" width="0.9" height="0.9"></rect><rect x="29.05" y="3.05" width="0.9" height="0.9"></rect><rect x="29.05" y="4.05" width="0.9" height="0.9"></rect><rect x="29.05" y="5.05" width="0.9" height="0.9"></rect><rect x="29.05" y="6.05" width="0.9" height="0.9"></rect><rect x="29.05" y="7.05" width="0.9" height="0.9"></rect><rect x="29.05" y="8.05" width="0.9" height="0.9"></rect><rect x="29.05" y="9.05" width="0.9" height="0.9"></rect><rect x="30.05" y="0.05" width="0.9" height="0.9"></rect><rect x="30.05" y="1.05" width="0.9" height="0.9"></rect><rect x="30.05" y="2.05" width="0.9" height="0.9"></rect><rect x="30.05" y="3.05" width="0.9" height="0.9"></rect><rect x="30.05" y="4.05" width="0.9" height="0.9"></rect><rect x="30.05" y="5.05" width="0.9" height="0.9"></rect><rect x="30.05" y="6.05" width="0.9" height="0.9"></rect><rect x="30.05" y="7.05" width="0.9" height="0.9"></rect><rect x="30.05" y="8.05" width="0.9" height="0.9"></rect><rect x="30.05" y="9.05" width="0.9" height="0.9"></rect><rect x="31.05" y="0.05" width="0.9" height="0.9"></rect><rect x="31.05" y="1.05" width="0.9" height="0.9"></rect><rect x="31.05" y="2.05" width="0.9" height="0.9"></rect><rect x="31.05" y="3.05" width="0.9" height="0.9"></rect><rect x="31.05" y="4.05" width="0.9" height="0.9"></rect><rect x="31.05" y="5.05" width="0.9" height="0.9"></rect><rect x="31.05" y="6.05" width="0.9" height="0.9"></rect><rect x="31.05" y="7.05" width="0.9" height="0.9"></rect><rect x="31.05" y="8.05" width="0.9" height="0.9"></rect><rect x="31.05" y="9.05" width="0.9" height="0.9"></rect><rect x="32.05" y="0.05" width="0.9" height="0.9"></rect><rect x="32.05" y="1.05" width="0.9" height="0.9"></rect><rect x="32.05" y="2.05" width="0.9" height="0.9"></rect><rect x="32.05" y="3.05" width="0.9" height="0.9"></rect><rect x="32.05" y="4.05" width="0.9" height="0.9"></rect><rect x="32.05" y="5.05" width="0.9" height="0.9"></rect><rect x="32.05" y="6.05" width="0.9" height="0.9"></rect><rect x="32.05" y="7.05" width="0.9" height="0.9"></rect><rect x="32.05" y="8.05" width="0.9" height="0.9"></rect><rect x="32.05" y="9.05" width="0.9" height="0.9"></rect><rect x="33.05" y="0.05" width="0.9" height="0.9"></rect><rect x="33.05" y="1.05" width="0.9" height="0.9"></rect><rect x="33.05" y="2.05" width="0.9" height="0.9"></rect><rect x="33.05" y="3.05" width="0.9" height="0.9"></rect><rect x="33.05" y="4.05" width="0.9" height="0.9"></rect><rect x="33.05" y="5.05" width="0.9" height="0.9"></rect><rect x="33.05" y="6.05" width="0.9" height="0.9"></rect><rect x="33.05" y="7.05" width="0.9" height="0.9"></rect><rect x="33.05" y="8.05" width="0.9" height="0.9"></rect><rect x="33.05" y="9.05" width="0.9" height="0.9"></rect><rect x="34.05" y="0.05" width="0.9" height="0.9"></rect><rect x="34.05" y="1.05" width="0.9" height="0.9"></rect><rect x="34.05" y="2.05" width="0.9" height="0.9"></rect><rect x="34.05" y="3.05" width="0.9" height="0.9"></rect><rect x="34.05" y="4.05" width="0.9" height="0.9"></rect><rect x="34.05" y="5.05" width="0.9" height="0.9"></rect><rect x="34.05" y="6.05" width="0.9" height="0.9"></rect><rect x="34.05" y="7.05" width="0.9" height="0.9"></rect><rect x="34.05" y="8.05" width="0.9" height="0.9"></rect><rect x="34.05" y="9.05" width="0.9" height="0.9"></rect><rect x="35.05" y="0.05" width="0.9" height="0.9"></rect><rect x="35.05" y="1.05" width="0.9" height="0.9"></rect><rect x="35.05" y="2.05" width="0.9" height="0.9"></rect><rect x="35.05" y="3.05" width="0.9" height="0.9"></rect><rect x="35.05" y="4.05" width="0.9" height="0.9"></rect><rect x="35.05" y="5.05" width="0.9" height="0.9"></rect><rect x="35.05" y="6.05" width="0.9" height="0.9"></rect><rect x="35.05" y="7.05" width="0.9" height="0.9"></rect><rect x="35.05" y="8.05" width="0.9" height="0.9"></rect><rect x="35.05" y="9.05" width="0.9" height="0.9"></rect><rect x="36.05" y="0.05" width="0.9" height="0.9"></rect><rect x="36.05" y="1.05" width="0.9" height="0.9"></rect><rect x="36.05" y="2.05" width="0.9" height="0.9"></rect><rect x="36.05" y="3.05" width="0.9" height="0.9"></rect><rect x="36.05" y="4.05" width="0.9" height="0.9"></rect><rect x="36.05" y="5.05" width="0.9" height="0.9"></rect><rect x="36.05" y="6.05" width="0.9" height="0.9"></rect><rect x="36.05" y="7.05" width="0.9" height="0.9"></rect><rect x="36.05" y="8.05" width="0.9" height="0.9"></rect><rect x="36.05" y="9.05" width="0.9" height="0.9"></rect><rect x="37.05" y="0.05" width="0.9" height="0.9"></rect><rect x="37.05" y="1.05" width="0.9" height="0.9"></rect><rect x="37.05" y="2.05" width="0.9" height="0.9"></rect><rect x="37.05" y="3.05" width="0.9" height="0.9"></rect><rect x="37.05" y="4.05" width="0.9" height="0.9"></rect><rect x="37.05" y="5.05" width="0.9" height="0.9"></rect><rect x="37.05" y="6.05" width="0.9" height="0.9"></rect><rect x="37.05" y="7.05" width="0.9" height="0.9"></rect><rect x="37.05" y="8.05" width="0.9" height="0.9"></rect><rect x="37.05" y="9.05" width="0.9" height="0.9"></rect><rect x="38.05" y="0.05" width="0.9" height="0.9"></rect><rect x="38.05" y="1.05" width="0.9" height="0.9"></rect><rect x="38.05" y="2.05" width="0.9" height="0.9"></rect><rect x="38.05" y="3.05" width="0.9" height="0.9"></rect><rect x="38.05" y="4.05" width="0.9" height="0.9"></rect><rect x="38.05" y="5.05" width="0.9" height="0.9"></rect><rect x="38.05" y="6.05" width="0.9" height="0.9"></rect><rect x="38.05" y="7.05" width="0.9" height="0.9"></rect><rect x="38.05" y="8.05" width="0.9" height="0.9"></rect><rect x="38.05" y="9.05" width="0.9" height="0.9"></rect><rect x="39.05" y="0.05" width="0.9" height="0.9"></rect><rect x="39.05" y="1.05" width="0.9" height="0.9"></rect><rect x="39.05" y="2.05" width="0.9" height="0.9"></rect><rect x="39.05" y="3.05" width="0.9" height="0.9"></rect><rect x="39.05" y="4.05" width="0.9" height="0.9"></rect><rect x="39.05" y="5.05" width="0.9" height="0.9"></rect><rect x="39.05" y="6.05" width="0.9" height="0.9"></rect><rect x="39.05" y="7.05" width="0.9" height="0.9"></rect><rect x="39.05" y="8.05" width="0.9" height="0.9"></rect><rect x="39.05" y="9.05" width="0.9" height="0.9"></rect><rect x="40.05" y="0.05" width="0.9" height="0.9"></rect><rect x="40.05" y="1.05" width="0.9" height="0.9"></rect><rect x="40.05" y="2.05" width="0.9" height="0.9"></rect></g></g><g transform="translate(42,-3.5)"><g fill="#326760"><title>Sinn Féin</title><rect x="0.05" y="0.05" width="0.9" height="0.9"></rect><rect x="0.05" y="1.05" width="0.9" height="0.9"></rect><rect x="0.05" y="2.05" width="0.9" height="0.9"></rect><rect x="0.05" y="3.05" width="0.9" height="0.9"></rect><rect x="0.05" y="4.05" width="0.9" height="0.9"></rect><rect x="0.05" y="5.05" width="0.9" height="0.9"></rect><rect x="0.05" y="6.05" width="0.9" height="0.9"></rect></g></g></svg>